<svg width="103" height="34" viewBox="0 0 103 34" fill="none" xmlns="http://www.w3.org/2000/svg">
<path d="M0.167873 13.6613V9.29378H3.43811V2.75331H9.50525V9.29378H13.3134V13.6613H9.50525V26.0537C9.50525 27.0147 9.62717 27.6171 9.871 27.861C10.1148 28.0904 10.8607 28.2052 12.1085 28.2052C12.295 28.2052 12.4886 28.2052 12.6894 28.2052C12.9046 28.1909 13.1125 28.1765 13.3134 28.1622V32.7448L10.4089 32.8524C7.51156 32.9528 5.5322 32.4508 4.47081 31.3463C3.78234 30.6435 3.43811 29.5606 3.43811 28.0976V13.6613H0.167873ZM29.9872 8.51925C30.102 8.51925 30.1952 8.52642 30.2669 8.54076C30.353 8.54076 30.5323 8.54793 30.8048 8.56228V14.8446C30.4175 14.8015 30.0733 14.7729 29.7721 14.7585C29.4709 14.7442 29.2271 14.737 29.0406 14.737C26.5736 14.737 24.9169 15.5402 24.0707 17.1466C23.5974 18.0503 23.3607 19.4415 23.3607 21.3205V32.5296H17.186V9.07863H23.038V13.1664C23.9846 11.603 24.8094 10.5345 25.5122 9.96073C26.6596 8.99974 28.1513 8.51925 29.9872 8.51925ZM32.1172 32.5296L40.1207 20.6535L32.4614 9.12166H39.9701L43.8857 15.9203L47.7154 9.12166H55.0088L47.3066 20.546L55.31 32.5296H47.6723L43.6276 25.4943L39.5613 32.5296H32.1172ZM73.4039 9.07863H79.9874L71.5321 32.5296H65.0562L56.644 9.07863H63.5287L68.4125 26.3764L73.4039 9.07863ZM89.7336 32.5296H83.6019V0.816984H89.7336V32.5296ZM95.6286 26.1183H102.148V32.5296H95.6286V26.1183Z" fill="white"/>
</svg>
